<svg width="856" height="153" viewBox="0 0 856 153" fill="none" xmlns="http://www.w3.org/2000/svg">
<path d="M171.12 76.3C172.344 69.296 174.962 63.04 178.974 57.532C182.986 51.956 187.916 47.638 193.764 44.578C199.68 41.45 205.902 39.886 212.43 39.886C220.318 39.886 226.778 41.79 231.81 45.598C236.91 49.338 240.14 54.642 241.5 61.51H233.136C231.912 56.75 229.43 53.044 225.69 50.392C222.018 47.672 217.224 46.312 211.308 46.312C206.072 46.312 201.142 47.536 196.518 49.984C191.962 52.432 188.086 55.934 184.89 60.49C181.694 65.046 179.552 70.316 178.464 76.3C178.056 78.612 177.852 80.856 177.852 83.032C177.852 87.724 178.804 91.838 180.708 95.374C182.612 98.842 185.298 101.528 188.766 103.432C192.234 105.268 196.212 106.186 200.7 106.186C206.616 106.186 211.886 104.86 216.51 102.208C221.202 99.556 224.976 95.884 227.832 91.192H236.298C232.422 97.992 227.288 103.262 220.896 107.002C214.572 110.742 207.466 112.612 199.578 112.612C193.798 112.612 188.698 111.422 184.278 109.042C179.926 106.594 176.526 103.194 174.078 98.842C171.63 94.49 170.406 89.458 170.406 83.746C170.406 81.774 170.644 79.292 171.12 76.3ZM271.231 112.816C266.607 112.816 262.527 111.898 258.991 110.062C255.455 108.158 252.701 105.506 250.729 102.106C248.825 98.638 247.873 94.592 247.873 89.968C247.873 83.712 249.301 77.966 252.157 72.73C255.013 67.426 258.991 63.244 264.091 60.184C269.191 57.056 274.869 55.492 281.125 55.492C285.749 55.492 289.829 56.444 293.365 58.348C296.901 60.184 299.655 62.836 301.627 66.304C303.599 69.704 304.585 73.716 304.585 78.34C304.585 84.664 303.123 90.444 300.199 95.68C297.275 100.916 293.263 105.098 288.163 108.226C283.131 111.286 277.487 112.816 271.231 112.816ZM272.047 106.798C276.875 106.798 281.193 105.506 285.001 102.922C288.877 100.338 291.869 96.904 293.977 92.62C296.153 88.336 297.241 83.712 297.241 78.748C297.241 73.172 295.609 68.922 292.345 65.998C289.149 63.074 285.069 61.612 280.105 61.612C275.277 61.612 270.959 62.904 267.151 65.488C263.411 68.072 260.487 71.506 258.379 75.79C256.271 80.074 255.217 84.698 255.217 89.662C255.217 95.17 256.815 99.42 260.011 102.412C263.207 105.336 267.219 106.798 272.047 106.798ZM313.827 84.052C314.847 78.34 316.887 73.342 319.947 69.058C323.007 64.706 326.781 61.374 331.269 59.062C335.757 56.682 340.551 55.492 345.651 55.492C350.547 55.492 354.729 56.682 358.197 59.062C361.733 61.442 364.113 64.536 365.337 68.344L370.947 36.52H378.087L364.725 112H357.585L359.829 99.556C357.381 103.432 354.015 106.628 349.731 109.144C345.447 111.592 340.687 112.816 335.451 112.816C328.719 112.816 323.313 110.81 319.233 106.798C315.221 102.718 313.215 97.244 313.215 90.376C313.215 88.404 313.419 86.296 313.827 84.052ZM362.481 84.154C362.821 82.25 362.991 80.55 362.991 79.054C362.991 73.75 361.393 69.534 358.197 66.406C355.001 63.278 350.853 61.714 345.753 61.714C341.809 61.714 338.103 62.598 334.635 64.366C331.235 66.134 328.345 68.718 325.965 72.118C323.585 75.45 321.987 79.428 321.171 84.052C320.831 86.092 320.661 87.826 320.661 89.254C320.661 94.626 322.225 98.876 325.353 102.004C328.549 105.064 332.697 106.594 337.797 106.594C341.605 106.594 345.243 105.676 348.711 103.84C352.247 102.004 355.205 99.386 357.585 95.986C360.033 92.586 361.665 88.642 362.481 84.154ZM415.093 55.492C419.785 55.492 423.797 56.41 427.129 58.246C430.461 60.014 432.977 62.462 434.677 65.59C436.445 68.718 437.329 72.288 437.329 76.3C437.329 78.136 437.193 79.768 436.921 81.196C436.513 83.236 436.105 85.072 435.697 86.704H389.491C389.287 87.996 389.185 89.22 389.185 90.376C389.185 95.612 390.749 99.658 393.877 102.514C397.073 105.37 401.119 106.798 406.015 106.798C410.707 106.798 414.821 105.676 418.357 103.432C421.893 101.188 424.477 98.162 426.109 94.354H433.759C431.447 99.794 427.741 104.248 422.641 107.716C417.609 111.116 411.727 112.816 404.995 112.816C398.059 112.816 392.483 110.844 388.267 106.9C384.119 102.888 382.045 97.448 382.045 90.58C382.045 88.54 382.249 86.398 382.657 84.154C383.677 78.374 385.717 73.308 388.777 68.956C391.905 64.604 395.747 61.272 400.303 58.96C404.859 56.648 409.789 55.492 415.093 55.492ZM429.577 81.4C429.917 79.496 430.087 77.898 430.087 76.606C430.087 71.778 428.557 68.072 425.497 65.488C422.437 62.904 418.527 61.612 413.767 61.612C410.299 61.612 406.967 62.36 403.771 63.856C400.575 65.352 397.787 67.596 395.407 70.588C393.027 73.58 391.395 77.184 390.511 81.4H429.577ZM478.544 40.702C485.548 40.702 490.784 42.198 494.252 45.19C497.788 48.182 499.556 52.194 499.556 57.226C499.556 58.11 499.42 59.504 499.148 61.408C498.264 66.576 496.02 70.996 492.416 74.668C488.812 78.272 484.018 80.618 478.034 81.706L490.988 112H482.42L470.078 82.216H456.818L451.616 112H444.476L457.022 40.702H478.544ZM491.702 61.408C491.906 60.048 492.008 58.824 492.008 57.736C492.008 54.132 490.818 51.344 488.438 49.372C486.058 47.4 482.386 46.414 477.422 46.414H463.142L457.838 76.504H472.22C477.864 76.504 482.318 75.144 485.582 72.424C488.846 69.704 490.886 66.032 491.702 61.408ZM505.973 84.052C506.993 78.34 509.033 73.342 512.093 69.058C515.153 64.706 518.893 61.374 523.313 59.062C527.801 56.682 532.595 55.492 537.695 55.492C542.999 55.492 547.351 56.716 550.751 59.164C554.151 61.612 556.361 64.74 557.381 68.548L559.523 56.308H566.663L556.871 112H549.731L551.873 99.658C549.561 103.466 546.229 106.628 541.877 109.144C537.593 111.592 532.799 112.816 527.495 112.816C523.075 112.816 519.199 111.898 515.867 110.062C512.535 108.226 509.951 105.642 508.115 102.31C506.279 98.91 505.361 94.932 505.361 90.376C505.361 88.404 505.565 86.296 505.973 84.052ZM554.627 84.154C554.967 82.25 555.137 80.55 555.137 79.054C555.137 73.75 553.539 69.534 550.343 66.406C547.147 63.278 542.999 61.714 537.899 61.714C533.955 61.714 530.249 62.598 526.781 64.366C523.381 66.134 520.491 68.718 518.111 72.118C515.731 75.45 514.133 79.428 513.317 84.052C512.977 86.092 512.807 87.826 512.807 89.254C512.807 94.626 514.371 98.876 517.499 102.004C520.695 105.064 524.843 106.594 529.943 106.594C533.751 106.594 537.389 105.676 540.857 103.84C544.393 102.004 547.351 99.386 549.731 95.986C552.179 92.586 553.811 88.642 554.627 84.154ZM609.381 55.288C615.093 55.288 619.649 56.852 623.049 59.98C626.517 63.04 628.251 67.528 628.251 73.444C628.251 75.62 628.081 77.592 627.741 79.36L621.927 112H614.889L620.499 80.176C620.771 78.612 620.907 76.946 620.907 75.178C620.907 70.69 619.683 67.29 617.235 64.978C614.787 62.666 611.353 61.51 606.933 61.51C601.561 61.51 596.971 63.21 593.163 66.61C589.355 70.01 586.873 75.008 585.717 81.604V81.298L580.311 112H573.171L582.963 56.308H590.103L588.369 65.896C590.749 62.496 593.775 59.878 597.447 58.042C601.119 56.206 605.097 55.288 609.381 55.288ZM671.072 55.492C676.308 55.492 680.626 56.716 684.026 59.164C687.494 61.612 689.738 64.706 690.758 68.446L692.9 56.308H700.04L690.044 113.428C689.16 118.528 687.256 123.05 684.332 126.994C681.476 130.938 677.872 133.964 673.52 136.072C669.168 138.248 664.476 139.336 659.444 139.336C652.304 139.336 646.66 137.636 642.512 134.236C638.432 130.836 636.324 126.212 636.188 120.364H643.226C643.77 124.24 645.538 127.334 648.53 129.646C651.522 131.958 655.534 133.114 660.566 133.114C666.074 133.114 670.902 131.346 675.05 127.81C679.198 124.342 681.816 119.548 682.904 113.428L685.25 99.658C682.938 103.466 679.606 106.628 675.254 109.144C670.97 111.592 666.21 112.816 660.974 112.816C654.242 112.816 648.836 110.81 644.756 106.798C640.744 102.718 638.738 97.244 638.738 90.376C638.738 88.404 638.942 86.296 639.35 84.052C640.37 78.34 642.41 73.342 645.47 69.058C648.53 64.706 652.27 61.374 656.69 59.062C661.178 56.682 665.972 55.492 671.072 55.492ZM688.004 84.154C688.344 82.25 688.514 80.55 688.514 79.054C688.514 73.75 686.916 69.534 683.72 66.406C680.524 63.278 676.376 61.714 671.276 61.714C667.332 61.714 663.626 62.598 660.158 64.366C656.758 66.134 653.868 68.718 651.488 72.118C649.108 75.45 647.51 79.428 646.694 84.052C646.354 86.092 646.184 87.826 646.184 89.254C646.184 94.626 647.748 98.876 650.876 102.004C654.072 105.064 658.22 106.594 663.32 106.594C667.128 106.594 670.766 105.676 674.234 103.84C677.77 102.004 680.728 99.386 683.108 95.986C685.556 92.586 687.188 88.642 688.004 84.154ZM740.616 55.492C745.308 55.492 749.32 56.41 752.652 58.246C755.984 60.014 758.5 62.462 760.2 65.59C761.968 68.718 762.852 72.288 762.852 76.3C762.852 78.136 762.716 79.768 762.444 81.196C762.036 83.236 761.628 85.072 761.22 86.704H715.014C714.81 87.996 714.708 89.22 714.708 90.376C714.708 95.612 716.272 99.658 719.4 102.514C722.596 105.37 726.642 106.798 731.538 106.798C736.23 106.798 740.344 105.676 743.88 103.432C747.416 101.188 750 98.162 751.632 94.354H759.282C756.97 99.794 753.264 104.248 748.164 107.716C743.132 111.116 737.25 112.816 730.518 112.816C723.582 112.816 718.006 110.844 713.79 106.9C709.642 102.888 707.568 97.448 707.568 90.58C707.568 88.54 707.772 86.398 708.18 84.154C709.2 78.374 711.24 73.308 714.3 68.956C717.428 64.604 721.27 61.272 725.826 58.96C730.382 56.648 735.312 55.492 740.616 55.492ZM755.1 81.4C755.44 79.496 755.61 77.898 755.61 76.606C755.61 71.778 754.08 68.072 751.02 65.488C747.96 62.904 744.05 61.612 739.29 61.612C735.822 61.612 732.49 62.36 729.294 63.856C726.098 65.352 723.31 67.596 720.93 70.588C718.55 73.58 716.918 77.184 716.034 81.4H755.1ZM784.993 67.426C787.237 63.55 790.161 60.558 793.765 58.45C797.369 56.342 801.551 55.288 806.311 55.288L804.985 62.734H802.945C798.049 62.734 793.833 63.992 790.297 66.508C786.761 69.024 784.313 73.172 782.953 78.952L777.139 112H769.999L779.791 56.308H786.931L784.993 67.426ZM825.519 112.816C819.875 112.816 815.285 111.524 811.749 108.94C808.213 106.288 806.445 102.684 806.445 98.128C806.445 97.312 806.479 96.7 806.547 96.292H813.483C813.211 99.556 814.163 102.174 816.339 104.146C818.515 106.118 821.711 107.104 825.927 107.104C830.211 107.104 833.645 106.22 836.229 104.452C838.813 102.616 840.105 100.202 840.105 97.21C840.105 95.442 839.561 93.946 838.473 92.722C837.385 91.498 836.025 90.512 834.393 89.764C832.829 88.948 830.619 88.03 827.763 87.01C824.227 85.718 821.371 84.528 819.195 83.44C817.087 82.284 815.251 80.72 813.687 78.748C812.191 76.708 811.443 74.158 811.443 71.098C811.443 68.038 812.327 65.318 814.095 62.938C815.863 60.558 818.277 58.722 821.337 57.43C824.465 56.138 828.001 55.492 831.945 55.492C837.453 55.492 841.941 56.852 845.409 59.572C848.945 62.292 850.713 65.896 850.713 70.384C850.713 71.336 850.679 72.05 850.611 72.526H843.879C843.947 72.254 843.981 71.812 843.981 71.2C843.981 68.208 842.791 65.794 840.411 63.958C838.099 62.122 835.107 61.204 831.435 61.204C827.763 61.204 824.703 62.088 822.255 63.856C819.875 65.556 818.685 67.868 818.685 70.792C818.685 72.764 819.263 74.43 820.419 75.79C821.575 77.082 823.003 78.136 824.703 78.952C826.403 79.768 828.681 80.72 831.537 81.808C834.937 83.1 837.657 84.29 839.697 85.378C841.805 86.466 843.573 87.962 845.001 89.866C846.429 91.77 847.143 94.15 847.143 97.006C847.143 101.834 845.137 105.676 841.125 108.532C837.113 111.388 831.911 112.816 825.519 112.816Z" fill="white"/>
<ellipse cx="80" cy="76.5" rx="80" ry="72.5" fill="#AF3232"/>
<path d="M66.3434 88.8804H78.0231C77.7887 92.7085 76.7341 96.1069 74.8591 99.0757C73.0101 102.044 70.419 104.362 67.0856 106.029C63.7783 107.695 59.794 108.529 55.1325 108.529C51.4867 108.529 48.2184 107.904 45.3278 106.654C42.4372 105.378 39.9632 103.555 37.9059 101.185C35.8747 98.8153 34.3252 95.9507 33.2575 92.5913C32.1898 89.2319 31.6559 85.4689 31.6559 81.3022V77.3569C31.6559 73.1903 32.2028 69.4272 33.2966 66.0679C34.4163 62.6825 36.0049 59.8049 38.0622 57.4351C40.1455 55.0653 42.6325 53.2424 45.5231 51.9663C48.4137 50.6903 51.6429 50.0522 55.2106 50.0522C59.9502 50.0522 63.9476 50.9116 67.2028 52.6304C70.4841 54.3491 73.0231 56.7189 74.82 59.7397C76.6429 62.7606 77.7367 66.1981 78.1012 70.0522H66.3825C66.2523 67.7606 65.7966 65.8205 65.0153 64.2319C64.2341 62.6174 63.0492 61.4064 61.4606 60.5991C59.8981 59.7658 57.8148 59.3491 55.2106 59.3491C53.2575 59.3491 51.5518 59.7137 50.0934 60.4429C48.6351 61.172 47.4111 62.2788 46.4216 63.7632C45.432 65.2476 44.6898 67.1226 44.195 69.3882C43.7262 71.6278 43.4919 74.258 43.4919 77.2788V81.3022C43.4919 84.245 43.7132 86.8361 44.1559 89.0757C44.5986 91.2892 45.2757 93.1642 46.1872 94.7007C47.1247 96.2111 48.3226 97.3569 49.7809 98.1382C51.2653 98.8934 53.0492 99.271 55.1325 99.271C57.5804 99.271 59.5986 98.8804 61.1872 98.0991C62.7757 97.3179 63.9867 96.159 64.82 94.6226C65.6794 93.0861 66.1872 91.172 66.3434 88.8804ZM85.7184 50.8726H106.929C111.278 50.8726 115.015 51.5236 118.14 52.8257C121.291 54.1278 123.713 56.0549 125.406 58.6069C127.099 61.159 127.945 64.297 127.945 68.021C127.945 71.0679 127.424 73.6851 126.382 75.8726C125.367 78.034 123.922 79.8439 122.047 81.3022C120.198 82.7345 118.023 83.8804 115.523 84.7397L111.812 86.6929H93.3747L93.2966 77.5522H107.007C109.065 77.5522 110.771 77.1877 112.125 76.4585C113.479 75.7293 114.494 74.7137 115.172 73.4116C115.875 72.1095 116.226 70.5991 116.226 68.8804C116.226 67.0575 115.888 65.4819 115.211 64.1538C114.534 62.8257 113.505 61.8101 112.125 61.1069C110.744 60.4038 109.013 60.0522 106.929 60.0522H97.4372V107.748H85.7184V50.8726ZM117.515 107.748L104.547 82.396L116.929 82.3179L130.054 107.201V107.748H117.515Z" fill="#FDFDFD"/>
</svg>
